HIERARCHY
ROOT Hips
{
	OFFSET 0.000000 0.000000 0.000000 
	CHANNELS 6 Xposition Yposition Zposition Yrotation Zrotation Xrotation 
	JOINT Lumbar
	{
		OFFSET 0.000000 0.000000 0.000000 
		CHANNELS 3 Zrotation Xrotation Yrotation
		JOINT Neck
		{
			OFFSET 0.000000 0.445665 0.000000 
			CHANNELS 3 Zrotation Xrotation Yrotation
			End Site
			{
				OFFSET 0.000000 0.227535 0.000000 
			}
		}
		JOINT RightShoulder
		{
			OFFSET 0.019635 0.377685 0.194865 
			CHANNELS 3 Zrotation Xrotation Yrotation
			JOINT RightElbow
			{
				OFFSET 0.000000 -0.243375 0.000000 
				CHANNELS 2 Zrotation Yrotation
				JOINT RightWrist
				{
					OFFSET 0.000000 -0.264825 0.000000 
					CHANNELS 2 Zrotation Xrotation
					End Site
					{
						OFFSET 0.006600 -0.176220 0.000990 
					}
				}
			}
		}
		JOINT LeftShoulder
		{
			OFFSET 0.019635 0.377685 -0.194865 
			CHANNELS 3 Zrotation Xrotation Yrotation
			JOINT LeftElbow
			{
				OFFSET 0.000000 -0.243375 0.000000 
				CHANNELS 2 Zrotation Yrotation
				JOINT LeftWrist
				{
					OFFSET 0.000000 -0.264825 0.000000 
					CHANNELS 2 Zrotation Xrotation
					End Site
					{
						OFFSET 0.006600 -0.176220 -0.000990 
					}
				}
			}
		}
	}
	JOINT RightHip
	{
		OFFSET 0.052140 -0.069960 0.075570 
		CHANNELS 3 Zrotation Xrotation Yrotation
		JOINT RightKnee
		{
			OFFSET 0.000000 -0.402270 0.000000 
			CHANNELS 1 Zrotation
			JOINT RightAnkle
			{
				OFFSET 0.000000 -0.404085 0.000000 
				CHANNELS 3 Zrotation Xrotation Yrotation
				End Site
				{
					OFFSET 0.204105 -0.089430 0.008415 
				}
			}
		}
	}
	JOINT LeftHip
	{
		OFFSET 0.052140 -0.069960 -0.075570 
		CHANNELS 3 Zrotation Xrotation Yrotation
		JOINT LeftKnee
		{
			OFFSET 0.000000 -0.402270 0.000000 
			CHANNELS 1 Zrotation
			JOINT LeftAnkle
			{
				OFFSET 0.000000 -0.404085 0.000000 
				CHANNELS 3 Zrotation Xrotation Yrotation
				End Site
				{
					OFFSET 0.204105 -0.089430 -0.008415 
				}
			}
		}
	}
}
MOTION
Frames: 19
Frame Time: 0.02
-2.41404 0.94959 1.05382 1049.25988 0 -6.32905 -37.3338 1.60218 -28.72593 -33.92766 23.48267 11.20998 36.64831 -60.26555 -9.71841 136.26407 113.89019 -68.19835 -6.53121 57.73267 8.18782 -7.6643 18.13781 -107.23658 -13.69773 10.6204 19.44653 10.60019 -2.77943 -5.11348 -17.14944 -1.88791 -7.1194 -0.16392 -2.68799 8.16816 -28.517 9.0368 4.02135 2.65245
-2.39833 0.9514 1.06373 1049.55307 0 -6.51274 -37.77629 1.58242 -28.74022 -34.05342 23.6146 11.89805 36.16005 -60.50582 -10.37954 136.16507 113.70647 -67.96284 -6.50164 56.08369 6.93235 -6.7931 17.39028 -104.74575 -12.54708 10.42155 19.40904 10.76221 -2.99825 -6.60224 -17.68714 -1.8318 -6.98069 0.55204 -1.83529 8.64662 -31.49071 8.09969 3.36689 1.29584
-2.38323 0.95432 1.07339 1049.63268 0 -6.82139 -38.38618 1.50232 -28.74405 -34.11309 23.78199 12.80271 35.88903 -60.80846 -10.75875 136.06442 113.45834 -67.72021 -6.48659 54.10151 5.66814 -5.52744 16.57681 -101.98076 -11.357 10.12864 19.47163 11.01887 -2.44694 -8.39341 -18.28242 -1.73926 -7.21885 1.70832 -0.72983 9.15348 -35.06727 6.7274 2.64727 -0.11868
-2.36788 0.95674 1.08312 1049.82039 0 -7.06057 -38.91029 1.44383 -28.74877 -34.205 23.92953 13.5943 35.52851 -61.081 -11.25657 135.96899 113.23571 -67.49234 -6.46202 52.28242 4.41731 -4.41805 15.78692 -99.3721 -10.19832 9.86483 19.46814 11.22223 -2.26026 -10.01776 -18.82106 -1.66657 -7.28965 2.67336 0.24211 9.61356 -38.34667 5.56078 1.97754 -1.47568
-2.35239 0.95913 1.09303 1049.96177 0 -7.35505 -39.47686 1.4112 -28.76829 -34.28977 24.09356 14.4511 35.12911 -61.36057 -11.79523 135.85538 113.02942 -67.21646 -6.44746 50.40638 3.11964 -3.39513 15.01576 -96.60734 -8.96964 9.65649 19.55151 11.46802 -2.0456 -11.79327 -19.48757 -1.58213 -7.32033 3.60226 1.29806 10.21836 -41.74022 4.35243 1.21643 -2.97543
-2.33734 0.96184 1.10251 1050.15011 0 -7.56312 -39.99316 1.3104 -28.75548 -34.37325 24.23153 15.22228 34.86131 -61.64088 -12.18422 135.77797 112.77565 -67.03822 -6.41686 48.57332 1.92074 -2.10624 14.19514 -94.11305 -7.88334 9.31316 19.47746 11.64797 -1.69275 -13.3155 -19.90178 -1.51256 -7.53461 4.70982 2.23621 10.52811 -45.0222 3.13602 0.63378 -4.18093
-2.32337 0.96515 1.11091 1050.50416 0 -7.50522 -40.34185 1.02969 -28.6506 -34.46464 24.28687 15.70294 34.9152 -61.9023 -12.19642 135.81388 112.38064 -67.13592 -6.33233 46.93483 0.99083 -0.1357 13.22908 -92.40984 -7.18876 8.59439 18.94778 11.62687 -1.15637 -14.06224 -19.60376 -1.49498 -8.14287 6.21071 2.79737 10.01306 -47.9769 1.93869 0.54213 -4.64124
-2.30982 0.96874 1.11888 1050.91547 0 -7.35549 -40.63162 0.6835 -28.51444 -34.55753 24.31483 16.08954 35.09163 -62.16308 -12.07327 135.88435 111.94385 -67.33072 -6.23241 45.35375 0.16311 2.07793 12.22131 -90.99601 -6.64266 7.74782 18.25566 11.53563 -0.50299 -14.54018 -19.04996 -1.49328 -8.92782 7.87398 3.22886 9.2009 -50.77108 0.75981 0.63561 -4.78943
-2.29608 0.97219 1.12702 1051.31115 0 -7.24518 -40.94063 0.37111 -28.39663 -34.65237 24.35673 16.51955 35.20513 -62.42821 -12.03283 135.93002 111.54362 -67.4787 -6.14392 43.75039 -0.70717 4.15306 11.24951 -89.46674 -6.03747 6.97649 17.63557 11.47423 0.11044 -15.13861 -18.61462 -1.48232 -9.65123 9.45868 3.7123 8.52584 -53.55771 -0.38326 0.65741 -5.02434
-2.28237 0.97571 1.13526 1051.65616 0 -7.14799 -41.28823 0.03914 -28.2621 -34.73373 24.39426 16.95487 35.35847 -62.67954 -11.89306 136.01222 111.06973 -67.63996 -6.03771 42.11683 -1.59608 6.36817 10.2023 -87.85713 -5.39501 6.12923 17.02632 11.42504 0.7026 -15.75497 -18.17294 -1.4775 -10.31666 11.08186 4.2336 7.84088 -56.71724 -1.72423 0.62694 -5.4869
-2.26869 0.97914 1.14318 1052.1223 0 -7.0013 -41.53811 -0.26626 -28.15371 -34.8445 24.43301 17.35333 35.45297 -62.95718 -11.93178 136.0288 110.73673 -67.79401 -5.96393 40.56715 -2.41946 8.33456 9.30462 -86.49042 -4.86633 5.41124 16.35487 11.33212 1.34658 -16.26633 -17.68168 -1.4657 -11.1294 12.65404 4.64258 7.10831 -59.03911 -2.64786 0.74684 -5.40941
-2.255 0.98233 1.15036 1052.91567 0 -6.72934 -41.5412 -0.48678 -28.13715 -35.03649 24.48923 17.6779 35.37625 -63.32016 -12.49452 135.83621 110.83407 -67.92865 -5.98902 39.21305 -3.10647 9.63642 8.81784 -85.69898 -4.61389 5.07984 15.54872 11.13944 2.19418 -16.54908 -17.1271 -1.41719 -12.39723 14.07303 4.76624 6.29636 -59.20846 -2.37882 1.26565 -3.83964
-2.24131 0.9854 1.15722 1053.82807 0 -6.41253 -41.44533 -0.67715 -28.14587 -35.25915 24.5458 17.96711 35.23374 -63.70705 -13.24151 135.57967 111.07013 -68.04894 -6.04632 37.94822 -3.72745 10.66291 8.48555 -85.14801 -4.47153 4.88375 14.68563 10.90453 3.07136 -16.73476 -16.52934 -1.3636 -13.78956 15.42651 4.7815 5.45236 -58.51272 -1.69662 1.92432 -1.75192
-2.2276 0.98848 1.16418 1054.68355 0 -6.12241 -41.3885 -0.87809 -28.13506 -35.46676 24.5975 18.26754 35.10292 -64.07438 -13.90917 135.3657 111.22137 -68.15899 -6.08499 36.65736 -4.3656 11.75908 8.09097 -84.50465 -4.27988 4.62724 13.8498 10.68525 3.87031 -16.96605 -15.94358 -1.32171 -15.06139 16.79137 4.84942 4.634 -58.1329 -1.23065 2.50031 0.04902
-2.21399 0.99177 1.1713 1055.55578 0 -5.80103 -41.35555 -1.09463 -28.1567 -35.67551 24.66919 18.5832 35.04231 -64.47817 -14.56082 135.09746 111.459 -68.34013 -6.13941 35.30274 -5.0539 13.09569 7.66173 -83.80012 -4.08966 4.36161 13.00234 10.47638 4.93955 -17.18144 -15.38021 -1.24163 -16.60426 18.24492 4.89797 3.75075 -58.08182 -0.64388 3.16349 2.0804
-2.20015 0.99457 1.17801 1056.41695 0 -5.53716 -41.24909 -1.2706 -28.11767 -35.89364 24.69838 18.86259 34.8321 -64.81204 -15.28196 134.92468 111.55526 -68.37234 -6.1696 34.10665 -5.62402 13.86598 7.34157 -83.2761 -3.92146 4.14886 12.16792 10.23952 5.46102 -17.41085 -14.76443 -1.23852 -17.61636 19.4896 4.9636 3.00869 -57.13265 -0.2111 3.67581 3.7475
-2.18574 0.99616 1.18378 1057.24954 0 -5.42744 -40.97265 -1.34181 -27.9005 -36.09195 24.62166 19.02755 34.10334 -64.94436 -16.23298 135.04842 111.1824 -67.96254 -6.11846 33.28261 -5.879 13.1103 7.28837 -83.19232 -3.77964 4.04934 11.38208 9.91141 4.37626 -17.69943 -14.00542 -1.45924 -17.0733 20.22761 5.09595 2.58044 -54.00577 -0.30053 3.73727 4.30959
-2.17107 0.99725 1.18912 1058.06014 0 -5.38063 -40.62436 -1.37284 -27.62232 -36.30575 24.50043 19.16178 33.24725 -65.00622 -17.23367 135.26749 110.66996 -67.4086 -6.043 32.6233 -6.01894 11.79809 7.33922 -83.27975 -3.65678 3.99902 10.6125 9.56129 2.75458 -18.00753 -13.19797 -1.75577 -16.00123 20.74724 5.25108 2.31143 -49.99351 -0.55937 3.64138 4.48147
-2.15646 0.99852 1.1946 1058.861 0 -5.3155 -40.30338 -1.42214 -27.37519 -36.53759 24.3918 19.32578 32.52991 -65.10178 -18.15677 135.43086 110.25242 -66.94353 -5.98316 31.91666 -6.21509 10.75924 7.34024 -83.28768 -3.52951 3.92655 9.83703 9.23771 1.43483 -18.30997 -12.42016 -2.01075 -15.20996 21.32985 5.40106 2.02745 -46.32189 -0.74418 3.61635 4.81104
